<svg xmlns="http://www.w3.org/2000/svg" width="53.44" height="48.19" viewBox="0 0 53.44 48.19">
  <defs>
    <style>
      .cls-1 {
        fill: none;
        stroke: #fff;
        stroke-width: 4px;
        fill-rule: evenodd;
      }
    </style>
  </defs>
  <path id="Rectangle_7_copy" data-name="Rectangle 7 copy" class="cls-1" d="M6163.95,1484.55c4.87-.09,7.05,1.62,9.68,3.74,0.76,0.61,1.2,1.55,1.91,2.2,0.01-.01.03-0.01,0.04-0.02a9,9,0,0,1,1.91-2.18c0.55-.45,1.03-0.98,1.62-1.4a12.749,12.749,0,0,1,9.1-2.25,20.122,20.122,0,0,1,2.51.56,13.693,13.693,0,0,1,7.74,6.55c2.08,3.56,2.41,9.53.69,13.72a25.034,25.034,0,0,1-3.81,6.13c-0.59.64-1.17,1.29-1.76,1.93a15.044,15.044,0,0,1-2.19,2.18c-0.63.6-1.26,1.21-1.9,1.81-1.81,1.46-3.45,3.1-5.27,4.55q-2.565,2.205-5.13,4.39c-1.01.81-1.7,1.89-3.25,2.16-1.69.3-2.83-1.33-3.67-2q-3.885-3.33-7.78-6.66c-1.21-1.06-2.41-2.12-3.62-3.18-0.37-.36-0.73-0.71-1.09-1.07a15.044,15.044,0,0,1-2.19-2.18c-0.58-.64-1.17-1.29-1.76-1.93a25.4,25.4,0,0,1-3.9-6.36,17.668,17.668,0,0,1-.3-10.92,15.224,15.224,0,0,1,2.46-4.66,13.139,13.139,0,0,1,6.66-4.55,18.347,18.347,0,0,1,2.21-.47Z" transform="translate(-6148.81 -1482.47)"/>
</svg>
