<svg id="Layer_1" data-name="Layer 1" xmlns="http://www.w3.org/2000/svg" viewBox="0 0 32.21 28.96"><defs><style>.cls-1{stroke:#000;stroke-width:2px;fill-rule:evenodd;}</style></defs><path id="Rectangle_7_copy" data-name="Rectangle 7 copy" class="cls-1" d="M9,1a7.94,7.94,0,0,1,5.91,2.29c.47.37.74.95,1.17,1.35l0,0A5.45,5.45,0,0,1,17.3,3.32c.34-.27.63-.6,1-.85a7.8,7.8,0,0,1,5.56-1.38,13.66,13.66,0,0,1,1.54.34,8.33,8.33,0,0,1,4.72,4,10.52,10.52,0,0,1,.43,8.39,15.73,15.73,0,0,1-2.33,3.74l-1.08,1.18a9.29,9.29,0,0,1-1.33,1.33l-1.17,1.11c-1.1.89-2.1,1.9-3.22,2.78l-3.13,2.68a4.22,4.22,0,0,1-2,1.32c-1,.18-1.73-.81-2.24-1.22L9.3,22.67l-2.22-2-.66-.65a8.8,8.8,0,0,1-1.33-1.33L4,17.56a15.54,15.54,0,0,1-2.39-3.89A10.75,10.75,0,0,1,1.44,7a9.44,9.44,0,0,1,1.5-2.86A8.12,8.12,0,0,1,7,1.37a12,12,0,0,1,1.35-.28Z" transform="translate(0 -0.02)"/></svg>