<svg xmlns="http://www.w3.org/2000/svg" width="32.218" height="28.969" viewBox="0 0 32.218 28.969">
  <defs>
    <style>
      .cls-1 {
        fill: #fff;
        stroke: #000;
        stroke-width: 2px;
        fill-rule: evenodd;
      }
    </style>
  </defs>
  <path id="Rectangle_7_copy" data-name="Rectangle 7 copy" class="cls-1" d="M701.622,871.69a7.938,7.938,0,0,1,5.916,2.284c0.464,0.372.731,0.947,1.164,1.348l0.028-.015a5.688,5.688,0,0,1,1.163-1.333c0.337-.271.633-0.6,0.993-0.851a7.781,7.781,0,0,1,5.561-1.376,12.788,12.788,0,0,1,1.533.34,8.338,8.338,0,0,1,4.723,4,10.465,10.465,0,0,1,.426,8.384,15.482,15.482,0,0,1-2.327,3.745q-0.538.59-1.078,1.177a9.136,9.136,0,0,1-1.333,1.334l-1.163,1.106c-1.1.889-2.107,1.9-3.22,2.781l-3.136,2.681a4.248,4.248,0,0,1-1.985,1.319c-1.029.182-1.729-.811-2.242-1.22q-2.376-2.035-4.753-4.071l-2.214-1.944-0.666-.652a9.08,9.08,0,0,1-1.332-1.334q-0.541-.588-1.079-1.177a15.572,15.572,0,0,1-2.384-3.887,10.782,10.782,0,0,1-.184-6.667,9.383,9.383,0,0,1,1.5-2.852,8.077,8.077,0,0,1,4.071-2.781,11.687,11.687,0,0,1,1.347-.283Z" transform="translate(-692.594 -870.656)"/>
</svg>
